<?xml version="1.0" encoding="UTF-8"?>
<svg id="Layer_2" data-name="Layer 2" xmlns="http://www.w3.org/2000/svg" viewBox="0 0 1602.47 915.88">
  <defs>
    <style>
      .cls-1 {
        stroke-dasharray: 0 6;
      }

      .cls-1, .cls-2, .cls-3, .cls-4, .cls-5, .cls-6, .cls-7 {
        stroke: #fff;
        stroke-miterlimit: 10;
      }

      .cls-1, .cls-2, .cls-8, .cls-9, .cls-4, .cls-7 {
        opacity: .59;
      }

      .cls-1, .cls-2, .cls-9, .cls-4, .cls-6 {
        fill: none;
      }

      .cls-10 {
        opacity: .5;
      }

      .cls-10, .cls-11, .cls-3, .cls-8, .cls-5, .cls-7 {
        fill: #fff;
      }

      .cls-10, .cls-11, .cls-8, .cls-9 {
        stroke-width: 0px;
      }

      .cls-3 {
        opacity: .88;
      }

      .cls-12 {
        opacity: .66;
      }

      .cls-4 {
        stroke-dasharray: 0 10;
        stroke-width: 2px;
      }

      .cls-6 {
        opacity: .82;
        stroke-width: 3px;
      }

      .cls-7 {
        stroke-width: 4px;
      }
    </style>
  </defs>
  <g id="Layer_2-2" data-name="Layer 2">
    <polygon class="cls-11" points="1471.37 807.93 1448.44 849.15 1476.62 886.99 1435.4 864.06 1397.56 892.23 1420.49 851.01 1392.32 813.17 1433.54 836.11 1471.37 807.93"/>
    <polygon class="cls-11" points="55.45 47.25 57.05 54.66 64.46 56.25 57.05 57.84 55.45 65.25 53.86 57.84 46.45 56.25 53.86 54.66 55.45 47.25"/>
    <g class="cls-12">
      <ellipse class="cls-8" cx="1371.36" cy="212.82" rx="39.33" ry="23.5" transform="translate(4.52 452.97) rotate(-18.79)"/>
      <ellipse class="cls-4" cx="1371.65" cy="213.67" rx="108.05" ry="64.55" transform="translate(4.26 453.11) rotate(-18.79)"/>
      <ellipse class="cls-2" cx="1371.36" cy="212.82" rx="122.49" ry="73.17" transform="translate(4.52 452.97) rotate(-18.79)"/>
      <ellipse class="cls-2" cx="1371.36" cy="212.82" rx="161.32" ry="96.37" transform="translate(4.52 452.97) rotate(-18.79)"/>
      <ellipse class="cls-1" cx="1371.36" cy="212.82" rx="181.74" ry="108.57" transform="translate(4.52 452.97) rotate(-18.79)"/>
      <ellipse class="cls-6" cx="1371.36" cy="212.82" rx="217.09" ry="129.69" transform="translate(4.52 452.97) rotate(-18.79)"/>
      <ellipse class="cls-8" cx="1371.36" cy="212.82" rx="39.33" ry="23.5" transform="translate(4.52 452.97) rotate(-18.79)"/>
      <ellipse class="cls-11" cx="1463.22" cy="274.08" rx="6.87" ry="4.1" transform="translate(-10.31 485.81) rotate(-18.79)"/>
      <ellipse class="cls-8" cx="1489.32" cy="191.75" rx="3.44" ry="2.05" transform="translate(17.59 489.83) rotate(-18.79)"/>
      <path class="cls-9" d="m1428.63,210.06c-1.08-3.18,2.37-7.24,7.69-9.05.83-.28,1.65-.48,2.46-.63.21-3.44-.2-6.81-1.3-10.05-7.41-21.78-43.1-29.41-79.56-17.01-36.46,12.4-60.1,40.21-52.69,62,7.41,21.78,43.1,29.41,79.56,17.01,24.26-8.25,42.84-23.33,50.38-38.91-3.23-.01-5.82-1.21-6.55-3.35Z"/>
      <path class="cls-9" d="m1440.11,212.14c4.95-1.68,8.16-5.46,7.15-8.41-.8-2.35-4.03-3.48-7.81-3-.31,4.02-1.47,8.13-3.38,12.2,1.28-.06,2.65-.31,4.04-.78Z"/>
      <path class="cls-9" d="m1436.46,201.42c-4.95,1.68-8.16,5.46-7.15,8.41.68,1.99,3.08,3.1,6.09,3.11,1.9-4.04,3.05-8.12,3.35-12.11-.75.13-1.52.32-2.3.59Z"/>
      <path class="cls-7" d="m1384.8,252.32c-36.46,12.4-72.15,4.77-79.56-17.01-7.41-21.78,16.23-49.59,52.69-62,36.46-12.4,72.15-4.77,79.56,17.01,1.1,3.24,1.51,6.62,1.3,10.05.23-.04.47-.08.7-.11.22-3.48-.2-6.9-1.31-10.18-7.49-22.01-43.55-29.72-80.38-17.19-36.84,12.53-60.72,40.63-53.23,62.64,7.49,22.01,43.55,29.72,80.38,17.19,24.53-8.34,43.3-23.59,50.91-39.34-.23.01-.45.02-.67.02-7.53,15.58-26.11,30.66-50.38,38.91Z"/>
      <path class="cls-8" d="m1439.48,200.27c0,.15-.02.3-.03.45,3.78-.48,7.01.65,7.81,3,1.01,2.96-2.2,6.73-7.15,8.41-1.38.47-2.75.72-4.04.78-.07.16-.15.31-.23.47,1.4-.06,2.89-.33,4.4-.85,5.32-1.81,8.78-5.87,7.69-9.05-.86-2.54-4.37-3.76-8.46-3.22Z"/>
      <path class="cls-8" d="m1429.31,209.83c-1.01-2.96,2.2-6.73,7.15-8.41.77-.26,1.54-.45,2.3-.59.01-.15.02-.3.03-.45-.81.14-1.63.35-2.46.63-5.32,1.81-8.78,5.87-7.69,9.05.73,2.13,3.31,3.33,6.55,3.35.08-.16.15-.31.23-.47-3.01-.01-5.42-1.12-6.09-3.11Z"/>
      <path class="cls-8" d="m1435.4,212.94c-.07.16-.15.31-.23.47.22,0,.44,0,.67-.02.08-.16.15-.31.23-.47-.23.01-.45.02-.67.02Z"/>
      <path class="cls-8" d="m1438.76,200.83c.23-.04.47-.08.7-.11.01-.15.02-.3.03-.45-.23.03-.46.07-.7.11,0,.15-.02.3-.03.45Z"/>
    </g>
    <polygon class="cls-10" points="35.38 0 41.63 29.12 70.75 35.38 41.63 41.63 35.38 70.75 29.12 41.63 0 35.38 29.12 29.12 35.38 0"/>
    <polygon class="cls-11" points="1381.7 912.13 1377.38 911.62 1376.53 915.88 1374.24 912.19 1370.37 914.18 1371.83 910.09 1367.86 908.31 1371.98 906.89 1370.89 902.68 1374.56 905.02 1377.18 901.54 1377.64 905.87 1381.99 905.75 1378.9 908.81 1381.7 912.13"/>
  </g>
  <g id="Layer_3" data-name="Layer 3">
    <polygon class="cls-5" points="1584 722.18 1577.33 737.66 1594.04 735.47 1577.78 739.91 1589.91 751.61 1576.3 741.66 1574.71 758.44 1574.01 741.6 1559.9 750.82 1572.62 739.77 1556.62 734.49 1573.19 737.55 1567.35 721.74 1575.29 736.6 1584 722.18"/>
    <polygon class="cls-3" points="1595.52 718.48 1596.52 716.58 1594.47 715.93 1596.58 715.52 1595.81 713.52 1597.44 714.92 1598.53 713.06 1598.45 715.21 1600.58 714.91 1598.86 716.19 1600.42 717.66 1598.34 717.11 1598.17 719.25 1597.3 717.28 1595.52 718.48"/>
  </g>
</svg>