<?xml version="1.0" encoding="UTF-8"?>
<svg id="Layer_2" data-name="Layer 2" xmlns="http://www.w3.org/2000/svg" viewBox="0 0 127.98 60.71">
  <defs>
    <style>
      .cls-1 {
        fill: #fff;
        stroke-width: 0px;
      }
    </style>
  </defs>
  <g id="Layer_2-2" data-name="Layer 2">
    <g>
      <path class="cls-1" d="m24.45.5l-2.75,23.72h-7.7c-.71-3.64-1.33-7.79-1.87-12.44-.25,1.99-.82,6.14-1.72,12.44H2.76L0,.5h5.99l.65,8.27.63,8c.23-4.14.79-9.56,1.71-16.27h6.4c.08.69.31,3.3.67,7.82l.68,9.02c.35-5.74.92-11.36,1.72-16.85h5.99Z"/>
      <path class="cls-1" d="m28.43,19.38v4.83h-4.47v-4.83h4.47Z"/>
      <path class="cls-1" d="m30.21.5h4.61c2.98,0,4.99.14,6.04.41s1.85.72,2.4,1.35.89,1.32,1.03,2.09.21,2.27.21,4.52v8.31c0,2.13-.1,3.55-.3,4.27-.2.72-.55,1.28-1.05,1.68s-1.11.69-1.85.85-1.84.24-3.31.24h-7.78V.5Zm6.17,4.06v15.6c.89,0,1.44-.18,1.64-.53s.31-1.33.31-2.91V7.5c0-1.07-.03-1.76-.1-2.07s-.22-.52-.47-.67-.7-.21-1.38-.21Z"/>
      <path class="cls-1" d="m46.79.5h10.28v4.75h-4.12v4.5h3.85v4.51h-3.85v5.21h4.53v4.75h-10.69V.5Z"/>
      <path class="cls-1" d="m72.32,7.68h-5.73v-1.76c0-.82-.07-1.34-.22-1.57s-.39-.34-.73-.34c-.37,0-.65.15-.84.45-.19.3-.29.76-.29,1.38,0,.79.11,1.39.32,1.79.2.4.79.88,1.74,1.45,2.75,1.63,4.47,2.97,5.19,4.01s1.07,2.73,1.07,5.05c0,1.69-.2,2.93-.59,3.74-.4.8-1.16,1.47-2.29,2.01s-2.45.81-3.96.81c-1.65,0-3.06-.31-4.23-.94s-1.93-1.42-2.29-2.39-.54-2.34-.54-4.12v-1.55h5.73v2.89c0,.89.08,1.46.24,1.71.16.25.45.38.86.38s.71-.16.92-.48c.2-.32.3-.8.3-1.44,0-1.4-.19-2.31-.57-2.74-.39-.43-1.35-1.15-2.89-2.15-1.53-1.02-2.55-1.75-3.05-2.21s-.91-1.09-1.24-1.9c-.33-.81-.49-1.85-.49-3.11,0-1.82.23-3.14.7-3.98.46-.84,1.21-1.5,2.25-1.97s2.29-.71,3.75-.71c1.6,0,2.97.26,4.09.78,1.13.52,1.88,1.17,2.24,1.96.37.79.55,2.12.55,4.01v.94Z"/>
      <path class="cls-1" d="m80.93.5v23.72h-6.17V.5h6.17Z"/>
      <path class="cls-1" d="m97.56,9.23h-6.17v-2.15c0-1.36-.06-2.21-.18-2.55s-.4-.51-.83-.51c-.38,0-.64.15-.78.44s-.21,1.04-.21,2.26v11.38c0,1.06.07,1.77.21,2.1s.41.51.82.51c.45,0,.75-.19.92-.57.16-.38.24-1.12.24-2.23v-2.81h-1.25v-3.6h7.22v12.73h-3.88l-.57-1.7c-.42.73-.95,1.28-1.59,1.65-.64.37-1.4.55-2.26.55-1.04,0-2.01-.25-2.91-.75-.9-.5-1.59-1.13-2.06-1.87-.47-.74-.76-1.52-.88-2.34s-.18-2.04-.18-3.67v-7.05c0-2.27.12-3.91.37-4.94s.94-1.97,2.1-2.82c1.16-.85,2.65-1.28,4.49-1.28s3.31.37,4.5,1.11,1.97,1.62,2.33,2.64.54,2.5.54,4.45v1.03Z"/>
      <path class="cls-1" d="m113.72.5v23.72h-5.41l-3.21-10.78v10.78h-5.16V.5h5.16l3.46,10.68V.5h5.16Z"/>
      <path class="cls-1" d="m24.45,36.5l-2.75,23.72h-7.7c-.71-3.64-1.33-7.79-1.87-12.44-.25,1.99-.82,6.14-1.72,12.44H2.76L0,36.5h5.99l.65,8.27.63,8c.23-4.14.79-9.56,1.71-16.27h6.4c.08.69.31,3.3.67,7.82l.68,9.02c.35-5.74.92-11.36,1.72-16.85h5.99Z"/>
      <path class="cls-1" d="m28.43,55.38v4.83h-4.47v-4.83h4.47Z"/>
      <path class="cls-1" d="m30.21,36.5h6.21c1.68,0,2.97.13,3.88.4.9.26,1.58.64,2.04,1.14.46.5.76,1.1.92,1.81.16.71.24,1.8.24,3.29v2.07c0,1.51-.16,2.62-.47,3.31s-.89,1.23-1.72,1.6c-.83.37-1.93.56-3.27.56h-1.66v9.55h-6.17v-23.72Zm6.17,4.06v6.04c.18,0,.33.01.45.01.57,0,.96-.14,1.18-.42.22-.28.33-.86.33-1.74v-1.95c0-.81-.13-1.34-.38-1.58s-.78-.37-1.58-.37Z"/>
      <path class="cls-1" d="m59.28,36.5v15.85c0,1.8-.06,3.06-.18,3.79s-.46,1.47-1.04,2.24-1.34,1.35-2.28,1.74c-.94.4-2.05.59-3.33.59-1.42,0-2.67-.23-3.75-.7s-1.89-1.08-2.43-1.83-.85-1.55-.95-2.38-.15-2.59-.15-5.27v-14.03h6.17v17.78c0,1.04.06,1.7.17,1.98.11.29.34.43.68.43.39,0,.64-.16.75-.48.11-.32.17-1.07.17-2.25v-17.48h6.17Z"/>
      <path class="cls-1" d="m61.67,36.5h6.15c1.94,0,3.42.15,4.42.45,1,.3,1.81.91,2.42,1.84s.92,2.41.92,4.46c0,1.39-.22,2.35-.65,2.9s-1.29.97-2.57,1.26c1.43.32,2.39.86,2.9,1.6s.76,1.89.76,3.44v2.2c0,1.6-.18,2.79-.55,3.56-.37.77-.95,1.3-1.75,1.58-.8.28-2.44.42-4.92.42h-7.13v-23.72Zm6.17,4.06v5.27c.26,0,.47-.01.62-.01.61,0,.99-.15,1.16-.45s.25-1.15.25-2.56c0-.74-.07-1.26-.21-1.56s-.32-.49-.53-.56c-.22-.08-.65-.12-1.28-.13Zm0,8.96v6.64c.87-.03,1.42-.17,1.66-.41.24-.24.36-.84.36-1.8v-2.21c0-1.02-.11-1.63-.32-1.85s-.78-.34-1.7-.37Z"/>
      <path class="cls-1" d="m84.4,36.5v18.97h3.75v4.75h-9.92v-23.72h6.17Z"/>
      <path class="cls-1" d="m95.82,36.5v23.72h-6.17v-23.72h6.17Z"/>
      <path class="cls-1" d="m111.36,43.68h-5.73v-1.76c0-.82-.07-1.34-.22-1.57s-.39-.34-.73-.34c-.37,0-.65.15-.84.45-.19.3-.29.76-.29,1.38,0,.79.11,1.39.32,1.79.2.4.79.88,1.74,1.45,2.75,1.63,4.47,2.97,5.19,4.01s1.07,2.73,1.07,5.05c0,1.69-.2,2.93-.59,3.74-.4.8-1.16,1.47-2.29,2.01s-2.45.81-3.96.81c-1.65,0-3.06-.31-4.23-.94s-1.93-1.42-2.29-2.39-.54-2.34-.54-4.12v-1.55h5.73v2.89c0,.89.08,1.46.24,1.71.16.25.45.38.86.38s.71-.16.92-.48c.2-.32.3-.8.3-1.44,0-1.4-.19-2.31-.57-2.74-.39-.43-1.35-1.15-2.89-2.15-1.53-1.02-2.55-1.75-3.05-2.21s-.91-1.09-1.24-1.9c-.33-.81-.49-1.85-.49-3.11,0-1.82.23-3.14.7-3.98.46-.84,1.21-1.5,2.25-1.97s2.29-.71,3.75-.71c1.6,0,2.97.26,4.09.78,1.13.52,1.88,1.17,2.24,1.96.37.79.55,2.12.55,4.01v.94Z"/>
      <path class="cls-1" d="m127.98,36.5v23.72h-6.17v-9.96h-1.85v9.96h-6.17v-23.72h6.17v8.48h1.85v-8.48h6.17Z"/>
    </g>
  </g>
</svg>