<?xml version="1.0" encoding="UTF-8"?>
<svg id="Layer_2" data-name="Layer 2" xmlns="http://www.w3.org/2000/svg" viewBox="0 0 1444.89 515.63">
  <defs>
    <style>
      .cls-1 {
        fill: none;
        stroke: #fff;
        stroke-miterlimit: 10;
        stroke-width: 3px;
      }

      .cls-2 {
        fill: #fff;
        stroke-width: 0px;
      }
    </style>
  </defs>
  <g id="Layer_5" data-name="Layer 5">
    <g>
      <polygon class="cls-2" points="808.77 422.35 804.32 421.82 803.44 426.21 801.08 422.41 797.1 424.46 798.61 420.24 794.52 418.41 798.76 416.96 797.64 412.62 801.42 415.02 804.11 411.45 804.59 415.9 809.06 415.78 805.88 418.92 808.77 422.35"/>
      <polygon class="cls-2" points="984.73 278.52 980.29 277.99 979.41 282.38 977.05 278.58 973.07 280.63 974.58 276.41 970.49 274.58 974.72 273.13 973.61 268.79 977.38 271.2 980.08 267.62 980.55 272.07 985.03 271.95 981.85 275.1 984.73 278.52"/>
      <polygon class="cls-2" points="1039.42 278.52 1034.97 277.99 1034.1 282.38 1031.74 278.58 1027.76 280.63 1029.26 276.41 1025.17 274.58 1029.41 273.13 1028.29 268.79 1032.07 271.2 1034.76 267.62 1035.24 272.07 1039.72 271.95 1036.53 275.1 1039.42 278.52"/>
      <polygon class="cls-2" points="984.73 511.77 980.29 511.24 979.41 515.63 977.05 511.83 973.07 513.88 974.58 509.66 970.49 507.83 974.72 506.38 973.61 502.04 977.38 504.44 980.08 500.87 980.55 505.32 985.03 505.2 981.85 508.34 984.73 511.77"/>
      <polygon class="cls-2" points="1132.88 511.77 1128.44 511.24 1127.56 515.63 1125.2 511.83 1121.22 513.88 1122.73 509.66 1118.64 507.83 1122.87 506.38 1121.76 502.04 1125.54 504.44 1128.23 500.87 1128.7 505.32 1133.18 505.2 1130 508.34 1132.88 511.77"/>
      <polygon class="cls-2" points="1215.42 511.77 1210.97 511.24 1210.1 515.63 1207.74 511.83 1203.76 513.88 1205.26 509.66 1201.17 507.83 1205.41 506.38 1204.29 502.04 1208.07 504.44 1210.76 500.87 1211.24 505.32 1215.71 505.2 1212.53 508.34 1215.42 511.77"/>
      <polygon class="cls-2" points="1160.91 511.77 1156.46 511.24 1155.59 515.63 1153.23 511.83 1149.25 513.88 1150.75 509.66 1146.66 507.83 1150.9 506.38 1149.78 502.04 1153.56 504.44 1156.25 500.87 1156.73 505.32 1161.2 505.2 1158.02 508.34 1160.91 511.77"/>
      <polygon class="cls-2" points="1215.42 278.52 1210.97 277.99 1210.1 282.38 1207.74 278.58 1203.76 280.63 1205.26 276.41 1201.17 274.58 1205.41 273.13 1204.29 268.79 1208.07 271.2 1210.76 267.62 1211.24 272.07 1215.71 271.95 1212.53 275.1 1215.42 278.52"/>
      <polygon class="cls-2" points="1160.91 278.52 1156.46 277.99 1155.59 282.38 1153.23 278.58 1149.25 280.63 1150.75 276.41 1146.66 274.58 1150.9 273.13 1149.78 268.79 1153.56 271.2 1156.25 267.62 1156.73 272.07 1161.2 271.95 1158.02 275.1 1160.91 278.52"/>
      <polygon class="cls-2" points="1132.88 465.95 1128.44 465.42 1127.56 469.81 1125.2 466.01 1121.22 468.06 1122.73 463.84 1118.64 462.01 1122.87 460.56 1121.76 456.22 1125.54 458.62 1128.23 455.05 1128.7 459.5 1133.18 459.38 1130 462.52 1132.88 465.95"/>
      <polygon class="cls-2" points="1039.42 463.37 1034.97 462.85 1034.1 467.24 1031.74 463.43 1027.76 465.49 1029.26 461.27 1025.17 459.44 1029.41 457.98 1028.29 453.65 1032.07 456.05 1034.76 452.48 1035.24 456.93 1039.72 456.8 1036.53 459.95 1039.42 463.37"/>
      <polygon class="cls-2" points="570.19 511.77 565.74 511.24 564.86 515.63 562.5 511.83 558.52 513.88 560.03 509.66 555.94 507.83 560.18 506.38 559.06 502.04 562.84 504.44 565.53 500.87 566.01 505.32 570.48 505.2 567.3 508.34 570.19 511.77"/>
      <polygon class="cls-2" points="570.19 278.52 565.74 277.99 564.86 282.38 562.5 278.58 558.52 280.63 560.03 276.41 555.94 274.58 560.18 273.13 559.06 268.79 562.84 271.2 565.53 267.62 566.01 272.07 570.48 271.95 567.3 275.1 570.19 278.52"/>
      <polygon class="cls-2" points="734.94 278.52 730.49 277.99 729.62 282.38 727.26 278.58 723.28 280.63 724.78 276.41 720.7 274.58 724.93 273.13 723.81 268.79 727.59 271.2 730.29 267.62 730.76 272.07 735.24 271.95 732.05 275.1 734.94 278.52"/>
      <polygon class="cls-2" points="734.94 324.07 730.49 323.54 729.62 327.93 727.26 324.12 723.28 326.18 724.78 321.96 720.7 320.13 724.93 318.68 723.81 314.34 727.59 316.74 730.29 313.17 730.76 317.62 735.24 317.5 732.05 320.64 734.94 324.07"/>
      <polygon class="cls-2" points="626.5 326.91 622.05 326.38 621.18 330.77 618.82 326.97 614.84 329.02 616.34 324.81 612.26 322.98 616.49 321.52 615.37 317.18 619.15 319.59 621.84 316.01 622.32 320.46 626.8 320.34 623.61 323.49 626.5 326.91"/>
      <polygon class="cls-2" points="626.01 377 621.57 376.47 620.69 380.86 618.33 377.06 614.35 379.11 615.86 374.89 611.77 373.06 616 371.61 614.89 367.27 618.66 369.67 621.36 366.1 621.83 370.55 626.31 370.43 623.13 373.57 626.01 377"/>
      <polygon class="cls-2" points="712.87 377.58 708.42 377.05 707.55 381.44 705.19 377.64 701.21 379.69 702.71 375.47 698.62 373.64 702.86 372.19 701.74 367.85 705.52 370.26 708.21 366.68 708.69 371.13 713.16 371.01 709.98 374.16 712.87 377.58"/>
      <polygon class="cls-2" points="914.6 299.14 910.15 298.62 909.27 303.01 906.91 299.2 902.94 301.26 904.44 297.04 900.35 295.21 904.59 293.76 903.47 289.42 907.25 291.82 909.94 288.25 910.42 292.7 914.89 292.57 911.71 295.72 914.6 299.14"/>
      <polygon class="cls-2" points="1311.38 423.41 1306.93 422.88 1306.05 427.28 1303.69 423.47 1299.72 425.52 1301.22 421.31 1297.13 419.48 1301.37 418.02 1300.25 413.69 1304.03 416.09 1306.72 412.51 1307.2 416.97 1311.67 416.84 1308.49 419.99 1311.38 423.41"/>
      <polygon class="cls-2" points="1417.21 300.21 1412.76 299.68 1411.89 304.07 1409.52 300.27 1405.55 302.32 1407.05 298.11 1402.96 296.28 1407.2 294.82 1406.08 290.48 1409.86 292.89 1412.55 289.31 1413.03 293.76 1417.5 293.64 1414.32 296.79 1417.21 300.21"/>
      <polygon class="cls-2" points="626.99 421.07 622.54 420.54 621.66 424.93 619.3 421.12 615.33 423.18 616.83 418.96 612.74 417.13 616.98 415.68 615.86 411.34 619.64 413.74 622.33 410.17 622.81 414.62 627.28 414.5 624.1 417.64 626.99 421.07"/>
      <path class="cls-2" d="m55.54,150.2v86.63H0V3.59h91.93c20.51,0,36.2,2.19,47.08,6.58,10.88,4.39,20.59,12.22,29.13,23.5,8.54,11.28,12.82,25.12,12.82,41.52,0,11.51-2.28,22.73-6.84,33.66-4.56,10.94-10.99,19.54-19.31,25.8-8.32,6.27-16.38,10.42-24.18,12.47-7.8,2.05-20.02,3.08-36.65,3.08h-38.45Zm-1.88-42.38h35.54c13.56,0,23.07-3.13,28.54-9.4,5.47-6.26,8.2-13.44,8.2-21.53,0-9.45-3.05-16.97-9.14-22.56-6.1-5.58-15.35-8.37-27.77-8.37h-35.37v61.86Z"/>
      <path class="cls-2" d="m298.84,240.42c-31.41,0-55.72-11.79-72.9-35.37-17.19-23.58-25.78-52.12-25.78-85.61s8.71-62.48,26.12-85.27C243.69,11.39,268.5,0,300.72,0s57.11,12.16,73.67,36.48c16.56,24.32,24.84,52.15,24.84,83.47,0,33.83-8.54,62.37-25.61,85.61-17.07,23.24-42,34.86-74.78,34.86Zm1.54-195.83c-28.65,0-42.97,25.18-42.97,75.53s14.32,75.7,42.97,75.7,41.61-25.18,41.61-75.53-13.87-75.7-41.61-75.7Z"/>
      <path class="cls-2" d="m489.91,144.39v92.44h-55.02V3.59h102.53c18.91,0,34.09,2.19,45.54,6.58,11.45,4.38,20.93,12.44,28.45,24.16,7.52,11.73,11.28,24.76,11.28,39.1,0,28-13.5,48.1-40.5,60.28l43.06,103.12h-60.37l-35.82-92.44h-39.14Zm0-99.28v59.47h33.49c10.94,0,18.88-.77,23.84-2.31s9.37-4.96,13.24-10.25c3.87-5.3,5.81-11.36,5.81-18.2s-1.94-12.3-5.81-17.43c-3.87-5.13-8.09-8.29-12.64-9.48-4.56-1.2-13.1-1.79-25.63-1.79h-32.3Z"/>
      <path class="cls-2" d="m812.69,3.59v46.14h-57.76v187.11h-55.36V49.73h-58.1V3.59h171.22Z"/>
      <path class="cls-1" d="m729.13,321.14h-109.19v52.29h86.29v43.57h-86.29v91.25h-56.73v-233.25h165.92v46.14Z"/>
      <path class="cls-1" d="m841.56,511.84c-31.41,0-55.72-11.79-72.9-35.37-17.19-23.58-25.78-52.12-25.78-85.61s8.71-62.48,26.12-85.27c17.41-22.78,42.23-34.18,74.44-34.18s57.11,12.16,73.67,36.48c16.56,24.32,24.84,52.15,24.84,83.47,0,33.83-8.54,62.37-25.61,85.61-17.07,23.24-42,34.86-74.78,34.86Zm1.53-195.83c-28.65,0-42.97,25.18-42.97,75.53s14.32,75.7,42.97,75.7,41.61-25.18,41.61-75.53-13.87-75.7-41.61-75.7Z"/>
      <path class="cls-1" d="m1033.12,462.11h92.79v46.14h-148.15v-233.25h55.36v187.11Z"/>
      <path class="cls-1" d="m1208.44,275v233.25h-54.51v-233.25h54.51Z"/>
      <path class="cls-1" d="m1343,511.84c-31.41,0-55.72-11.79-72.9-35.37-17.19-23.58-25.78-52.12-25.78-85.61s8.71-62.48,26.12-85.27c17.41-22.78,42.23-34.18,74.44-34.18s57.11,12.16,73.67,36.48c16.56,24.32,24.84,52.15,24.84,83.47,0,33.83-8.54,62.37-25.61,85.61-17.07,23.24-42,34.86-74.78,34.86Zm1.53-195.83c-28.65,0-42.97,25.18-42.97,75.53s14.32,75.7,42.97,75.7,41.61-25.18,41.61-75.53-13.87-75.7-41.61-75.7Z"/>
    </g>
  </g>
</svg>