<?xml version="1.0" encoding="UTF-8"?>
<svg id="Layer_2" data-name="Layer 2" xmlns="http://www.w3.org/2000/svg" viewBox="0 0 1540.89 632.41">
  <defs>
    <style>
      .cls-1 {
        opacity: .94;
      }

      .cls-1, .cls-2, .cls-3, .cls-4, .cls-5 {
        fill: #fff;
      }

      .cls-1, .cls-4 {
        stroke-width: 0px;
      }

      .cls-6 {
        opacity: .8;
      }

      .cls-2 {
        opacity: .88;
      }

      .cls-2, .cls-3, .cls-5, .cls-7 {
        stroke: #fff;
        stroke-miterlimit: 10;
      }

      .cls-3 {
        stroke-dasharray: 0 8;
      }

      .cls-4 {
        opacity: .59;
      }

      .cls-7 {
        fill: none;
        stroke-dasharray: 0 0 7.99 7.99;
      }
    </style>
  </defs>
  <g id="Layer_3" data-name="Layer 3">
    <g class="cls-6">
      <ellipse class="cls-7" cx="756.1" cy="301.14" rx="674.5" ry="159.79" transform="translate(-54.44 227.68) rotate(-16.54)"/>
    </g>
    <circle class="cls-1" cx="1125.01" cy="62.4" r="3.56"/>
    <circle class="cls-4" cx="1043.51" cy="128.01" r="6.7"/>
    <circle class="cls-4" cx="516.51" cy="522.27" r="4.57"/>
    <line class="cls-5" x1="204.35" y1="49.54" x2=".35" y2="253.54"/>
    <line class="cls-5" x1="242.28" y1="31.17" x2="38.28" y2="235.17"/>
    <line class="cls-3" x1="233.39" y1=".35" x2="29.39" y2="204.35"/>
    <polygon class="cls-5" points="157.58 392.03 157.73 402.36 167.62 405.32 159.64 411.88 163.49 421.46 153.39 419.3 148.3 428.29 143.68 419.05 133.48 420.67 137.83 411.3 130.2 404.34 140.24 401.9 140.93 391.59 149.09 397.92 157.58 392.03"/>
    <polygon class="cls-5" points="1522.42 596.1 1515.75 611.58 1532.46 609.4 1516.2 613.83 1528.33 625.54 1514.72 615.59 1513.13 632.37 1512.43 615.53 1498.32 624.75 1511.05 613.7 1495.04 608.41 1511.61 611.47 1505.77 595.66 1513.71 610.53 1522.42 596.1"/>
    <polygon class="cls-2" points="1533.94 592.4 1534.94 590.5 1532.89 589.85 1535 589.45 1534.23 587.44 1535.86 588.84 1536.95 586.99 1536.88 589.14 1539.01 588.83 1537.28 590.11 1538.84 591.59 1536.76 591.03 1536.59 593.18 1535.72 591.21 1533.94 592.4"/>
  </g>
</svg>