<?xml version="1.0" encoding="UTF-8"?>
<svg id="Layer_2" data-name="Layer 2" xmlns="http://www.w3.org/2000/svg" viewBox="0 0 1778.73 51.42">
  <defs>
    <style>
      .cls-1 {
        fill: #fff;
        stroke-width: 0px;
      }
    </style>
  </defs>
  <g id="Layer_5" data-name="Layer 5">
    <g>
      <path class="cls-1" d="m20.45,32.43l-.45,5.31H0v-5.18c.65-.49,1.73-1.27,3.22-2.32,3.66-2.6,6.32-4.75,7.99-6.44,1.67-1.69,2.5-3.23,2.5-4.64,0-1.03-.33-1.88-1-2.55-.66-.67-1.56-1.01-2.68-1.01-2.6,0-4.11,1.7-4.53,5.1l-5.51-1.23c1.24-5.87,4.67-8.81,10.29-8.81,3.15,0,5.57.83,7.26,2.48,1.69,1.65,2.53,3.63,2.53,5.92s-.88,4.49-2.65,6.35c-1.76,1.86-5.01,4.2-9.74,7.01h12.75Z"/>
      <path class="cls-1" d="m33.87,38.16c-3.27,0-5.81-1.3-7.63-3.89-1.82-2.59-2.72-5.87-2.72-9.82s.89-7.15,2.66-9.79c1.77-2.65,4.35-3.97,7.73-3.97s5.94,1.33,7.73,3.97c1.8,2.65,2.7,5.89,2.7,9.72s-.9,7.2-2.71,9.83c-1.8,2.64-4.39,3.96-7.76,3.96Zm.08-23.01c-1.47,0-2.5.68-3.08,2.04-.58,1.36-.87,3.75-.87,7.16s.3,5.83.91,7.17c.61,1.34,1.61,2.01,3.02,2.01s2.4-.66,3.03-1.97c.62-1.31.94-3.63.94-6.95,0-3.65-.31-6.13-.92-7.46-.61-1.33-1.62-1.99-3.03-1.99Z"/>
      <path class="cls-1" d="m67.36,32.43l-.45,5.31h-20v-5.18c.65-.49,1.73-1.27,3.22-2.32,3.66-2.6,6.32-4.75,7.99-6.44,1.67-1.69,2.5-3.23,2.5-4.64,0-1.03-.33-1.88-1-2.55-.66-.67-1.56-1.01-2.68-1.01-2.6,0-4.11,1.7-4.53,5.1l-5.51-1.23c1.24-5.87,4.67-8.81,10.29-8.81,3.15,0,5.57.83,7.26,2.48,1.69,1.65,2.53,3.63,2.53,5.92s-.88,4.49-2.65,6.35c-1.76,1.86-5.01,4.2-9.74,7.01h12.75Z"/>
      <path class="cls-1" d="m90.9,17.8l-5.37,1.45c-.51-2.73-1.84-4.1-3.98-4.1-3.12,0-4.69,2.97-4.69,8.92,1.26-2.04,3.25-3.06,5.98-3.06,2.49,0,4.52.81,6.09,2.43,1.58,1.62,2.36,3.54,2.36,5.75,0,2.36-.87,4.44-2.61,6.25-1.74,1.81-4.06,2.71-6.96,2.71s-5.13-.74-6.79-2.21c-1.66-1.47-2.79-3.22-3.38-5.25-.59-2.03-.89-4-.89-5.92,0-4.09.92-7.46,2.76-10.12,1.84-2.66,4.57-3.98,8.19-3.98,2.62,0,4.72.69,6.31,2.06,1.59,1.37,2.58,3.06,2.97,5.07Zm-9.73,15.88c1.13,0,2.08-.38,2.83-1.14.75-.76,1.13-1.83,1.13-3.23,0-1.23-.41-2.21-1.22-2.93-.81-.72-1.72-1.08-2.72-1.08-1.05,0-1.99.39-2.8,1.17-.81.78-1.22,1.8-1.22,3.06,0,1.18.38,2.17,1.13,2.96.75.79,1.71,1.19,2.87,1.19Z"/>
    </g>
    <g>
      <path class="cls-1" d="m1658.74,13.77l-5.67,22.58h-5.2l-3.71-14.94-3.58,14.94h-5.16l-5.81-22.58h5.4l3.11,13.78c.01.07.07.31.18.73.04.15.11.39.18.69l3.7-15.2h4.88l3.8,15.2c.08-.29.19-.76.33-1.42l3.2-13.78h4.35Z"/>
      <path class="cls-1" d="m1664.78,36.35h-5.11v-5.11h5.11v5.11Z"/>
      <path class="cls-1" d="m1668.85,13.77h6.89c2.81,0,4.9.39,6.28,1.17s2.61,2.01,3.7,3.69,1.64,3.81,1.64,6.38c0,3.23-.95,5.93-2.86,8.1-1.91,2.17-4.53,3.25-7.88,3.25h-7.77V13.77Zm5.19,4.15v14.18h2.18c1.93,0,3.36-.72,4.29-2.16.94-1.44,1.4-3.13,1.4-5.07,0-1.37-.27-2.63-.8-3.8-.53-1.16-1.2-1.98-1.99-2.45s-1.74-.7-2.86-.7h-2.23Z"/>
      <path class="cls-1" d="m1706.95,18.07h-10.75v4.63h8.45v4.25h-8.45v4.93h10.75v4.47h-16.13V13.77h16.13v4.3Z"/>
      <path class="cls-1" d="m1725.72,18.74l-4.5,1.51c-.61-1.79-1.89-2.68-3.85-2.68-2.09,0-3.14.68-3.14,2.03,0,.54.2,1,.59,1.37.39.37,1.27.7,2.65.98,2.3.46,3.99.93,5.06,1.41,1.07.47,1.97,1.24,2.7,2.29.73,1.05,1.1,2.23,1.1,3.53,0,2.04-.79,3.8-2.36,5.29-1.57,1.49-3.9,2.23-6.98,2.23-2.31,0-4.28-.53-5.91-1.58s-2.7-2.62-3.21-4.69l4.9-1.11c.55,2.11,2.08,3.16,4.59,3.16,1.21,0,2.11-.23,2.71-.7.59-.47.89-1.03.89-1.68s-.27-1.17-.81-1.54c-.54-.36-1.58-.71-3.12-1.03-2.87-.6-4.92-1.41-6.15-2.44s-1.83-2.54-1.83-4.52.73-3.7,2.19-5.08c1.46-1.38,3.44-2.07,5.94-2.07,4.43,0,7.28,1.77,8.54,5.31Z"/>
      <path class="cls-1" d="m1735.07,13.77v22.58h-5.28V13.77h5.28Z"/>
      <path class="cls-1" d="m1757.19,24.28v12.08h-2.42c-.17-.85-.43-1.71-.75-2.6-1.61,1.96-3.66,2.94-6.16,2.94-2.95,0-5.24-1.05-6.88-3.16s-2.46-4.83-2.46-8.17c0-3.6.87-6.48,2.62-8.67s4.12-3.28,7.12-3.28c2.51,0,4.54.71,6.09,2.12s2.49,3.29,2.83,5.64l-5.03.66c-.41-2.74-1.7-4.1-3.89-4.1-1.43,0-2.52.65-3.25,1.94s-1.1,3.15-1.1,5.55.4,4.09,1.19,5.31,1.92,1.84,3.39,1.84c.95,0,1.8-.31,2.54-.93s1.12-1.6,1.12-2.96h-4.25v-4.22h9.28Z"/>
      <path class="cls-1" d="m1778.73,13.77v22.58h-4.51l-8.84-15.25c.01.39.02.64.03.76.04.39.07.71.07.98v13.52h-4.12V13.77h5.7l7.68,13.32c-.07-.66-.1-1.16-.1-1.51v-11.81h4.09Z"/>
    </g>
    <g>
      <rect class="cls-1" x="194.33" y="25.71" width="625.98" height="1"/>
      <rect class="cls-1" x="947.98" y="25.77" width="625.98" height="1"/>
      <polygon class="cls-1" points="892.47 27.74 904.77 25.71 892.86 23.75 909.86 1.33 886.17 17.38 884.14 5.09 882.18 17 859.76 0 875.81 23.69 863.52 25.71 875.43 27.67 858.43 50.09 882.12 34.04 884.14 46.33 886.11 34.43 908.52 51.42 892.47 27.74"/>
    </g>
  </g>
</svg>