<?xml version="1.0" encoding="UTF-8"?>
<svg id="Layer_2" data-name="Layer 2" xmlns="http://www.w3.org/2000/svg" viewBox="0 0 91.29 27.48">
  <defs>
    <style>
      .cls-1 {
        fill: #fff;
        stroke-width: 0px;
      }
    </style>
  </defs>
  <g id="Layer_2-2" data-name="Layer 2">
    <g>
      <path class="cls-1" d="m20.45,21.76l-.45,5.31H0v-5.18c.65-.49,1.73-1.27,3.22-2.32,3.66-2.6,6.32-4.75,7.99-6.44,1.67-1.69,2.5-3.23,2.5-4.64,0-1.03-.33-1.88-1-2.55-.66-.67-1.56-1.01-2.68-1.01-2.6,0-4.11,1.7-4.53,5.1l-5.51-1.23C1.24,2.94,4.67,0,10.29,0c3.15,0,5.57.83,7.26,2.48,1.69,1.65,2.53,3.63,2.53,5.92s-.88,4.49-2.65,6.35c-1.76,1.86-5.01,4.2-9.74,7.01h12.75Z"/>
      <path class="cls-1" d="m33.87,27.48c-3.27,0-5.81-1.3-7.63-3.89-1.82-2.59-2.72-5.87-2.72-9.82s.89-7.15,2.66-9.79c1.77-2.65,4.35-3.97,7.73-3.97s5.94,1.33,7.73,3.97c1.8,2.65,2.7,5.89,2.7,9.72s-.9,7.2-2.71,9.83c-1.8,2.64-4.39,3.96-7.76,3.96Zm.08-23.01c-1.47,0-2.5.68-3.08,2.04-.58,1.36-.87,3.75-.87,7.16s.3,5.83.91,7.17c.61,1.34,1.61,2.01,3.02,2.01s2.4-.66,3.03-1.97c.62-1.31.94-3.63.94-6.95,0-3.65-.31-6.13-.92-7.46-.61-1.33-1.62-1.99-3.03-1.99Z"/>
      <path class="cls-1" d="m67.36,21.76l-.45,5.31h-20v-5.18c.65-.49,1.73-1.27,3.22-2.32,3.66-2.6,6.32-4.75,7.99-6.44,1.67-1.69,2.5-3.23,2.5-4.64,0-1.03-.33-1.88-1-2.55-.66-.67-1.56-1.01-2.68-1.01-2.6,0-4.11,1.7-4.53,5.1l-5.51-1.23c1.24-5.87,4.67-8.81,10.29-8.81,3.15,0,5.57.83,7.26,2.48,1.69,1.65,2.53,3.63,2.53,5.92s-.88,4.49-2.65,6.35c-1.76,1.86-5.01,4.2-9.74,7.01h12.75Z"/>
      <path class="cls-1" d="m90.9,7.13l-5.37,1.45c-.51-2.73-1.84-4.1-3.98-4.1-3.12,0-4.69,2.97-4.69,8.92,1.26-2.04,3.25-3.06,5.98-3.06,2.49,0,4.52.81,6.09,2.43,1.58,1.62,2.36,3.54,2.36,5.75,0,2.36-.87,4.44-2.61,6.25-1.74,1.81-4.06,2.71-6.96,2.71s-5.13-.74-6.79-2.21c-1.66-1.47-2.79-3.22-3.38-5.25-.59-2.03-.89-4-.89-5.92,0-4.09.92-7.46,2.76-10.12,1.84-2.66,4.57-3.98,8.19-3.98,2.62,0,4.72.69,6.31,2.06,1.59,1.37,2.58,3.06,2.97,5.07Zm-9.73,15.88c1.13,0,2.08-.38,2.83-1.14.75-.76,1.13-1.83,1.13-3.23,0-1.23-.41-2.21-1.22-2.93-.81-.72-1.72-1.08-2.72-1.08-1.05,0-1.99.39-2.8,1.17-.81.78-1.22,1.8-1.22,3.06,0,1.18.38,2.17,1.13,2.96.75.79,1.71,1.19,2.87,1.19Z"/>
    </g>
  </g>
</svg>