<?xml version="1.0" encoding="UTF-8"?>
<svg id="Layer_2" data-name="Layer 2" xmlns="http://www.w3.org/2000/svg" viewBox="0 0 357.43 658.66">
  <defs>
    <style>
      .cls-1 {
        stroke-dasharray: 0 10;
      }

      .cls-1, .cls-2, .cls-3, .cls-4, .cls-5, .cls-6 {
        stroke: #fff;
        stroke-miterlimit: 10;
      }

      .cls-1, .cls-2, .cls-3, .cls-7, .cls-5, .cls-6 {
        fill: none;
      }

      .cls-1, .cls-2, .cls-4, .cls-5 {
        stroke-width: 2px;
      }

      .cls-2 {
        opacity: .78;
        stroke-dasharray: 0 9;
      }

      .cls-8 {
        opacity: .9;
      }

      .cls-4, .cls-9 {
        fill: #fff;
      }

      .cls-7, .cls-9 {
        stroke-width: 0px;
      }

      .cls-6 {
        stroke-dasharray: 0 25;
      }
    </style>
  </defs>
  <g id="Layer_3" data-name="Layer 3">
    <g class="cls-8">
      <g>
        <path class="cls-7" d="m195.76,144.97c-30.53,0-55.36-24.84-55.36-55.36s24.84-55.36,55.36-55.36c17.67,0,33.43,8.32,43.57,21.24-11.67-19.58-33.06-32.73-57.47-32.73-36.86,0-66.86,29.99-66.86,66.86s29.99,66.86,66.86,66.86c24.41,0,45.8-13.15,57.47-32.73-10.14,12.92-25.9,21.24-43.57,21.24Z"/>
        <path class="cls-9" d="m239.33,123.73c-11.67,19.58-33.06,32.73-57.47,32.73-36.86,0-66.86-29.99-66.86-66.86s29.99-66.86,66.86-66.86c24.41,0,45.8,13.15,57.47,32.73,1.07,1.37,2.08,2.78,3.02,4.25-11.04-22.26-34.01-37.61-60.5-37.61-37.21,0-67.48,30.27-67.48,67.48s30.27,67.48,67.48,67.48c26.49,0,49.46-15.34,60.5-37.61-.94,1.47-1.95,2.88-3.02,4.25Z"/>
        <path class="cls-9" d="m195.76,144.35c-30.18,0-54.74-24.56-54.74-54.74s24.56-54.74,54.74-54.74c19.3,0,36.3,10.04,46.05,25.18-.77-1.56-1.6-3.08-2.48-4.56-10.14-12.92-25.9-21.24-43.57-21.24-30.53,0-55.36,24.84-55.36,55.36s24.84,55.36,55.36,55.36c17.67,0,33.43-8.32,43.57-21.24.88-1.48,1.71-3.01,2.48-4.56-9.75,15.13-26.75,25.18-46.05,25.18Z"/>
      </g>
      <circle class="cls-9" cx="178.23" cy="479.94" r="15.26"/>
      <circle class="cls-3" cx="178.23" cy="479.94" r="25.37"/>
      <rect class="cls-9" x="178.72" y="368.4" width="1" height="11"/>
      <rect class="cls-9" x="178.72" y="390.4" width="1" height="11"/>
      <rect class="cls-9" x="178.72" y="434.4" width="1" height="11"/>
      <rect class="cls-9" x="178.72" y="514.75" width="1" height="11"/>
      <rect class="cls-9" x="178.72" y="536.75" width="1" height="11"/>
      <circle class="cls-3" cx="179.22" cy="417.9" r="7.56"/>
      <circle class="cls-9" cx="178.72" cy="346.4" r="7.56"/>
      <circle class="cls-9" cx="205.89" cy="71.29" r="3.38"/>
      <circle class="cls-3" cx="144.11" cy="81.43" r="3.38"/>
      <circle class="cls-3" cx="171.66" cy="124.95" r="5.77"/>
      <path class="cls-5" d="m190.7,625.79c-26.9-64.93,3.94-64.93-22.96,0,64.93-26.9,64.93,3.94,0-22.96,26.9,64.93-3.94,64.93,22.96,0-64.93,26.9-64.93-3.94,0,22.96Z"/>
      <line class="cls-1" x1="179.72" y1="39.37" x2="179.72" y2="334.44"/>
      <g>
        <line class="cls-4" x1="192.24" y1="63.86" x2="193.06" y2="151.35"/>
        <line class="cls-4" x1="150.31" y1="225.92" x2="151.14" y2="313.4"/>
        <line class="cls-4" x1="193.53" y1="150.92" x2="149.79" y2="226.68"/>
      </g>
      <g>
        <line class="cls-4" x1="190.99" y1="589.4" x2="192.34" y2="501.92"/>
        <line class="cls-4" x1="150.03" y1="427.1" x2="151.38" y2="339.62"/>
        <line class="cls-4" x1="192.81" y1="502.36" x2="149.52" y2="426.33"/>
      </g>
      <line class="cls-6" x1="163.96" x2="163.96" y2="149.81"/>
      <line class="cls-2" x1="194.48" y1="207.33" x2="194.48" y2="445.4"/>
      <circle class="cls-9" cx="178.37" cy="87.64" r="16.35"/>
      <circle class="cls-3" cx="186.27" cy="87.64" r="25.67"/>
      <circle class="cls-3" cx="179.72" cy="87.64" r="32.23"/>
      <circle class="cls-3" cx="178.72" cy="479.94" r="178.22"/>
      <path class="cls-7" d="m220.55,477.58c0-44.49-28.59-82.43-68.36-96.42-43.7,11.59-76,51.48-76,98.77,0,44.49,28.59,82.43,68.36,96.42,43.7-11.59,76-51.48,76-98.78Z"/>
      <path class="cls-7" d="m73.2,479.94c0-47.1,31.12-87.07,73.88-100.42-9.11-2.67-18.74-4.11-28.71-4.11-56.34,0-102.18,45.84-102.18,102.18s45.84,102.18,102.18,102.18c7.18,0,14.19-.75,20.96-2.17-38.72-15.54-66.13-53.46-66.13-97.66Z"/>
      <path class="cls-9" d="m167.99,373.58c-8.99,0-17.72,1.14-26.06,3.27,1.72.59,3.42,1.22,5.1,1.9,6.77-1.42,13.78-2.17,20.96-2.17,56.34,0,102.18,45.84,102.18,102.18s-45.84,102.18-102.18,102.18c-9.96,0-19.6-1.44-28.71-4.11-1.73.54-3.48,1.04-5.24,1.49,10.66,3.64,22.08,5.62,33.95,5.62,58,0,105.18-47.18,105.18-105.18s-47.18-105.18-105.18-105.18Z"/>
      <path class="cls-9" d="m144.55,576.36c-1.72.46-3.47.87-5.22,1.24,1.68.67,3.38,1.31,5.1,1.9,1.77-.45,3.51-.95,5.24-1.49-1.73-.51-3.43-1.06-5.12-1.65Z"/>
      <path class="cls-9" d="m152.2,381.16c1.72-.46,3.47-.87,5.22-1.24-1.68-.67-3.38-1.31-5.1-1.9-1.77.45-3.51.95-5.24,1.49,1.73.51,3.43,1.06,5.12,1.65Z"/>
    </g>
  </g>
</svg>